<svg xmlns="http://www.w3.org/2000/svg" viewBox="0 0 400 260" fill="none" aria-hidden="true">
  <defs>
    <pattern id="htd" width="6" height="6" patternUnits="userSpaceOnUse">
      <circle cx="1" cy="1" r="1" fill="#3b82f6" opacity="0.22"/>
    </pattern>
  </defs>
  <rect width="400" height="260" fill="#fff7ed"/>
  <!-- Voice panel -->
  <rect x="20" y="32" width="120" height="196" fill="url(#htd)" stroke="#111" stroke-width="3"/>
  <ellipse cx="80" cy="100" rx="28" ry="34" fill="#3b82f6" stroke="#111" stroke-width="3"/>
  <path d="M52 96h8M100 96h8" stroke="#111" stroke-width="3" stroke-linecap="round"/>
  <path d="M56 140 Q80 168 104 140" stroke="#111" stroke-width="3" fill="none" stroke-linecap="round"/>
  <path d="M40 52 Q80 28 120 52" stroke="#111" stroke-width="2" fill="none" opacity="0.35"/>
  <path d="M40 68 Q80 48 120 68" stroke="#111" stroke-width="2" fill="none" opacity="0.35"/>
  <!-- Paste → lines -->
  <rect x="160" y="48" width="112" height="96" rx="8" fill="#fff" stroke="#111" stroke-width="3"/>
  <path d="M176 72h80M176 92h48M176 112h72" stroke="#cbd5e1" stroke-width="2" stroke-linecap="round"/>
  <path d="M176 76h72M176 96h56M176 116h64" stroke="#111" stroke-width="2.5" stroke-linecap="round"/>
  <path d="M216 40 L232 56 200 56Z" fill="#f9a8d4" stroke="#111" stroke-width="2"/>
  <!-- Sorted column -->
  <rect x="292" y="40" width="88" height="188" rx="6" fill="#fff" stroke="#111" stroke-width="3"/>
  <rect x="304" y="56" width="64" height="22" rx="11" fill="#fde047" stroke="#111" stroke-width="2"/>
  <rect x="304" y="88" width="64" height="22" rx="11" fill="#5eead4" stroke="#111" stroke-width="2"/>
  <rect x="304" y="120" width="64" height="22" rx="11" fill="#f9a8d4" stroke="#111" stroke-width="2"/>
  <circle cx="336" cy="188" r="26" fill="#fde047" stroke="#111" stroke-width="3"/>
  <path d="M326 188l6 8 16-20" stroke="#111" stroke-width="4" stroke-linecap="round" stroke-linejoin="round" fill="none"/>
</svg>
