<svg xmlns="http://www.w3.org/2000/svg" viewBox="0 0 400 240" fill="none" aria-hidden="true">
  <rect width="400" height="240" rx="20" fill="#0f172a"/>
  <!-- Voice glow -->
  <circle cx="96" cy="100" r="52" fill="#1e293b" stroke="#5eead4" stroke-width="2" opacity="0.9"/>
  <ellipse cx="96" cy="96" rx="22" ry="28" fill="#3b82f6" stroke="#e2e8f0" stroke-width="2"/>
  <path d="M118 92c10 0 18 8 18 18v8" stroke="#5eead4" stroke-width="2" stroke-linecap="round"/>
  <path d="M72 132 Q96 148 120 132" stroke="#93c5fd" stroke-width="2" fill="none" stroke-linecap="round" opacity="0.7"/>
  <!-- Paste resolving -->
  <rect x="188" y="56" width="100" height="80" rx="8" fill="#1e293b" stroke="#64748b" stroke-width="2"/>
  <path d="M204 76h68M204 96h40M204 116h56" stroke="#334155" stroke-width="2" stroke-linecap="round"/>
  <path d="M204 80h60M204 100h48M204 120h52" stroke="#fde047" stroke-width="2" stroke-linecap="round" opacity="0.85"/>
  <circle cx="238" cy="48" r="8" fill="#f9a8d4" stroke="#fff" stroke-width="1.5"/>
  <!-- Sorted bars + done -->
  <rect x="310" y="56" width="70" height="14" rx="7" fill="#3b82f6" stroke="#5eead4" stroke-width="1.5"/>
  <rect x="310" y="78" width="70" height="14" rx="7" fill="#334155" stroke="#94a3b8" stroke-width="1.5"/>
  <rect x="310" y="100" width="70" height="14" rx="7" fill="#334155" stroke="#94a3b8" stroke-width="1.5"/>
  <circle cx="345" cy="168" r="36" fill="#fde047" stroke="#3b82f6" stroke-width="3"/>
  <path d="M332 168l8 10 22-28" stroke="#0f172a" stroke-width="4" stroke-linecap="round" stroke-linejoin="round" fill="none"/>
</svg>
