<svg xmlns="http://www.w3.org/2000/svg" viewBox="0 0 400 240" fill="none" aria-hidden="true">
  <rect width="400" height="240" fill="#f8fafc"/>
  <g transform="translate(24,36)">
    <rect width="88" height="96" rx="12" fill="#fde047" stroke="#111" stroke-width="3" transform="rotate(-5 44 48)"/>
    <ellipse cx="44" cy="44" rx="18" ry="22" fill="#3b82f6" stroke="#111" stroke-width="2.5"/>
    <path d="M62 40c12 0 22 10 22 22v6" stroke="#111" stroke-width="2.5" stroke-linecap="round"/>
    <path d="M28 78 Q44 88 60 78" stroke="#111" stroke-width="2.5" fill="none" stroke-linecap="round"/>
    <path d="M24 20 Q44 8 64 20" stroke="#111" stroke-width="2" fill="none" opacity="0.4"/>
  </g>
  <g transform="translate(128,44)">
    <rect width="100" height="88" rx="10" fill="#fff" stroke="#111" stroke-width="3" transform="rotate(4 50 44)"/>
    <path d="M24 32h52M24 48h68M24 64h40M24 80h58" stroke="#111" stroke-width="2" stroke-linecap="round" opacity="0.3"/>
    <path d="M28 36h60M28 52h36M28 68h52" stroke="#111" stroke-width="2.5" stroke-linecap="round"/>
    <rect x="68" y="12" width="24" height="10" rx="2" fill="#f9a8d4" stroke="#111" stroke-width="1.5"/>
  </g>
  <g transform="translate(248,52)">
    <rect x="0" y="0" width="120" height="28" rx="14" fill="#3b82f6" stroke="#111" stroke-width="2.5"/>
    <rect x="8" y="40" width="36" height="18" rx="9" fill="#fde047" stroke="#111" stroke-width="2"/>
    <rect x="52" y="40" width="36" height="18" rx="9" fill="#f9a8d4" stroke="#111" stroke-width="2"/>
    <rect x="96" y="40" width="24" height="18" rx="9" fill="#5eead4" stroke="#111" stroke-width="2"/>
    <path d="M20 78h80" stroke="#111" stroke-width="2" stroke-linecap="round" stroke-dasharray="4 6" opacity="0.4"/>
  </g>
  <g transform="translate(300,150)">
    <circle r="44" fill="#fde047" stroke="#111" stroke-width="3"/>
    <path d="M-14 -4 L-2 10 18 -16" stroke="#111" stroke-width="5" stroke-linecap="round" stroke-linejoin="round"/>
  </g>
</svg>
